:SAMPLES-PER-SECOND 24
:FULLY-SPECIFIED
:DEGREES
356
root  2.76641 38.6101 34.6596 8.81323 -60.1964 -4.74332
RightUpLeg  -4.81527 5.16054 -12.0579
RightLeg  25.4693 -4.0161 -2.30443
RightFoot  -13.336 0.178931 14.947
RightToes  -2.08645e-008 3.77894e-005 6.81332e-007
Spine  3.90295 2.62789 2.33861
Spine1  6.35639 3.42667 -3.09109
HEad  -33.7652 33.8588 -14.7047
LeftShoulder1  6.07184 -11.8571 -33.5277
LeftArm  12.0716 26.1413 -25.6227
LeftForeArm  162.578 -70.3886 -151.841
LeftHand  -0.382068 -2.89297 5.55697
RightShoulder  3.80115 6.5723 31.8363
RightArm  15.0164 -25.8738 26.7075
RightForeArm  144.962 76.8316 133.762
RightHand  -0.254765 8.43873 -2.51432
LeftUpLeg  -16.0756 -8.15316 12.5475
LeftLeg  27.3058 -1.86634 -0.705966
LeftFoot  -14.4572 -0.295221 -14.1214
LeftToes  1.24767e-006 1.47042e-008 1.32732e-009
357
root  3.36589 37.9146 34.8369 6.49219 -61.1318 -2.3252
RightUpLeg  -3.16843 7.4535 -13.7914
RightLeg  21.9368 -6.74982 -3.19481
RightFoot  -18.015 0.710752 14.3086
RightToes  -2.08645e-008 3.77894e-005 6.81332e-007
Spine  3.73913 2.73894 2.33889
Spine1  9.00709 3.96596 -4.70743
HEad  -36.7646 32.7481 -16.5576
LeftShoulder1  6.93359 -12.7338 -36.6329
LeftArm  14.9319 16.4818 -21.1635
LeftForeArm  146.987 -76.7245 -134.454
LeftHand  -0.592538 -2.86417 8.55725
RightShoulder  3.9284 6.64331 32.8296
RightArm  11.2401 -22.7356 27.7492
RightForeArm  117.27 80.2453 103.376
RightHand  -0.351242 8.41935 -3.3171
LeftUpLeg  -18.3021 -8.32956 9.88551
LeftLeg  31.3823 1.08612 1.09341
LeftFoot  -17.8071 -0.543002 -11.4868
LeftToes  1.24767e-006 1.47042e-008 1.32732e-009
358
root  3.95472 37.8389 34.975 6.48767 -64.1659 -1.93494
RightUpLeg  -3.49743 12.8075 -14.2607
RightLeg  18.7966 -11.0082 -4.34524
RightFoot  -17.2552 0.416719 10.3139
RightToes  -2.08645e-008 3.77894e-005 6.81332e-007
Spine  4.21556 3.3428 3.36221
Spine1  10.0498 5.00916 -5.98577
HEad  -39.7596 32.1563 -19.1665
LeftShoulder1  7.73625 -13.5725 -39.1451
LeftArm  14.8897 11.0895 -20.6331
LeftForeArm  125.498 -79.7969 -112.128
LeftHand  -0.656309 -2.00231 10.4953
RightShoulder  4.09131 6.7899 33.8576
RightArm  7.61119 -22.6798 29.9725
RightForeArm  96.8143 80.458 83.4702
RightHand  -0.652857 7.20498 -6.35821
LeftUpLeg  -19.2155 -7.61198 8.67392
LeftLeg  32.5711 3.87273 3.02354
LeftFoot  -17.2289 -0.425343 -10.2516
LeftToes  1.24767e-006 1.47042e-008 1.32732e-009
359
root  4.30379 38.2849 34.9584 9.24017 -69.6091 -3.49353
RightUpLeg  -6.50247 15.2912 -14.2393
RightLeg  16.8102 -12.6757 -4.60922
RightFoot  -14.4085 0.0701405 6.4089
RightToes  -2.08645e-008 3.77894e-005 6.81332e-007
Spine  4.45724 3.85715 2.74269
Spine1  8.4783 5.36493 -5.55741
HEad  -40.9456 35.0222 -21.2898
LeftShoulder1  7.6896 -13.5511 -38.934
LeftArm  11.2829 13.7 -24.3227
LeftForeArm  133.073 -78.6079 -122.614
LeftHand  -0.639301 -1.6751 10.6772
RightShoulder  4.13847 6.86657 34.0172
RightArm  8.23287 -24.5416 32.4097
RightForeArm  107.02 80.4911 93.7675
RightHand  -0.568442 7.37941 -5.51615
LeftUpLeg  -17.7034 -3.9823 8.76381
LeftLeg  28.4209 5.0262 3.28997
LeftFoot  -15.5039 -0.317974 -11.2918
LeftToes  1.24767e-006 1.47042e-008 1.32732e-009
360
root  4.46013 38.9322 34.7554 14.1772 -74.6828 -6.7287
RightUpLeg  -9.89635 10.0544 -12.7279
RightLeg  17.3919 -13.4996 -4.96875
RightFoot  -13.0368 -0.015034 5.07894
RightToes  -2.08645e-008 3.77894e-005 6.81332e-007
Spine  2.94878 3.28467 1.0039
Spine1  7.1348 4.28368 -3.93153
HEad  -40.8662 40.1988 -22.1187
LeftShoulder1  7.23793 -13.0833 -37.5487
LeftArm  7.361 18.1632 -27.9022
LeftForeArm  147.688 -75.0919 -139.977
LeftHand  -0.601966 -1.48789 10.3262
RightShoulder  4.17796 6.96014 34.0364
RightArm  12.0955 -26.0008 33.9124
RightForeArm  124.125 80.1156 108.66
RightHand  -0.432946 8.49417 -4.01339
LeftUpLeg  -15.3716 -0.153446 9.26527
LeftLeg  21.527 6.92942 3.34365
LeftFoot  -12.1003 -0.00860665 -11.6506
LeftToes  1.24767e-006 1.47042e-008 1.32732e-009
361
root  4.59993 39.5088 34.5123 19.5009 -78.4606 -11.4023
RightUpLeg  -11.8951 0.330235 -9.22396
RightLeg  22.5201 -16.15 -7.45365
RightFoot  -12.2987 -0.0538045 3.40938
RightToes  -2.08645e-008 3.77894e-005 6.81332e-007
Spine  2.00226 2.14563 0.531537
Spine1  6.25624 2.81659 -2.78385
HEad  -39.9199 43.9799 -21.7363
LeftShoulder1  6.9111 -12.7662 -36.4241
LeftArm  5.52542 19.2816 -28.8737
LeftForeArm  153.512 -73.042 -145.889
LeftHand  -0.543547 -1.20489 9.71738
RightShoulder  4.19981 7.00656 34.0677
RightArm  15.6409 -27.7556 34.0429
RightForeArm  134.897 79.401 118.614
RightHand  -0.458327 8.73267 -4.14451
LeftUpLeg  -11.8928 2.43812 9.43754
LeftLeg  14.0903 8.72997 3.49371
LeftFoot  -7.95499 0.394124 -11.6928
LeftToes  1.24767e-006 1.47042e-008 1.32732e-009
362
root  4.71128 39.7543 34.2445 24.9027 -82.79 -17.5479
RightUpLeg  -12.6046 -9.52532 -6.30676
RightLeg  29.1135 -14.5474 -8.82751
RightFoot  -10.6376 -0.091594 3.1623
RightToes  -2.08645e-008 3.77894e-005 6.81332e-007
Spine  2.07001 1.37163 0.591363
Spine1  5.83809 1.98466 -2.6683
HEad  -38.7315 46.1552 -21.3939
LeftShoulder1  6.61243 -12.5275 -35.2226
LeftArm  4.81716 17.8137 -28.4067
LeftForeArm  153.919 -72.78 -146.47
LeftHand  -0.508602 -1.14754 9.1799
RightShoulder  4.17005 7.0105 33.7716
RightArm  18.8853 -29.4824 32.2757
RightForeArm  143.187 78.0744 128.423
RightHand  -0.0768482 9.23081 -1.00553
LeftUpLeg  -7.37705 4.43474 9.38702
LeftLeg  8.41424 10.8087 3.06808
LeftFoot  -6.03911 0.637643 -12.949
LeftToes  1.24767e-006 1.47042e-008 1.32732e-009
363
root  4.71873 39.5836 33.8147 28.7986 -88.5578 -21.8535
RightUpLeg  -12.3893 -16.4018 -5.20015
RightLeg  31.4836 -10.8076 -7.31329
RightFoot  -10.4586 -0.111911 6.08623
RightToes  -2.08645e-008 3.77894e-005 6.81332e-007
Spine  0.715133 1.29824 -1.9063
Spine1  6.44765 1.63867 -1.43471
HEad  -36.4843 47.2507 -20.2583
LeftShoulder1  6.47052 -12.3456 -34.8094
LeftArm  5.0338 14.6297 -25.6103
LeftForeArm  149.669 -73.8051 -143.565
LeftHand  -0.53037 -1.42283 9.20053
RightShoulder  4.08059 6.94265 33.1744
RightArm  21.5278 -29.7945 29.5008
RightForeArm  146.693 77.1473 133.215
RightHand  -0.0625507 9.22767 -0.89525
LeftUpLeg  -5.0143 5.715 8.87492
LeftLeg  7.84372 15.1567 2.44247
LeftFoot  -6.69648 0.593396 -13.5591
LeftToes  1.24767e-006 1.47042e-008 1.32732e-009
364
root  4.72664 39.1108 33.2806 -165.052 -84.9756 172.28
RightUpLeg  -11.837 -17.0273 -4.6622
RightLeg  29.0793 -10.5929 -6.52548
RightFoot  -14.5272 0.0979617 7.23476
RightToes  -2.08645e-008 3.77894e-005 6.81332e-007
Spine  -1.86873 1.55348 -3.96189
Spine1  7.90452 1.91911 -0.784123
HEad  -32.577 44.8558 -16.7398
LeftShoulder1  6.68752 -12.4693 -35.8272
LeftArm  5.92349 9.73701 -19.553
LeftForeArm  141.321 -75.8608 -136.452
LeftHand  -0.543668 -1.64625 9.14567
RightShoulder  4.01587 6.81469 33.0347
RightArm  21.4663 -27.8714 28.3132
RightForeArm  136.164 78.7559 122.888
RightHand  -0.322305 8.58402 -3.05677
LeftUpLeg  -5.85584 9.64291 8.1668
LeftLeg  12.6552 16.0896 3.16353
LeftFoot  -9.52529 0.290196 -15.1403
LeftToes  1.24767e-006 1.47042e-008 1.32732e-009
